# xmcd CD database file
#
# Track frame offsets:
#	150
#	113438
#	174143
#
# Disc length: 2897 seconds
#
# Revision: 0
# Processed by: cddbd v1.5.2PL0 Copyright (c) Steve Scherf et al.
# Submitted via: CDex 1.51
#
DISCID=130b4f03
DTITLE=Tokunaga - Takaoka - duo - solo
DYEAR=2013
DGENRE=Jazz
TTITLE0=duo
TTITLE1=tuba solo
TTITLE2=sax solo
EXTD=YEAR: 2013
EXTT0=
EXTT1=
EXTT2=
PLAYORDER=
